<svg width="1200" height="180" viewBox="0 0 1200 180" fill="none" xmlns="http://www.w3.org/2000/svg">
<rect width="1200" height="180" rx="30" fill="#B2FCE4"/>
<path d="M578.657 91.6002C578.657 83.0412 572.421 77.0257 564.761 77.0257C557.1 77.0257 550.864 83.1426 550.864 91.6002C550.864 99.9563 557.1 106.175 564.761 106.175C572.429 106.167 578.657 100.159 578.657 91.6002ZM578.767 117.074V110.45C574.988 115.038 569.362 117.886 562.624 117.886C548.626 117.886 538 106.674 538 91.6002C538 76.62 549.033 65.2132 562.937 65.2132C569.479 65.2132 574.995 68.0688 578.775 72.5472V66.126H591.341V117.074H578.767Z" fill="black"/>
<path d="M652.382 105.761C647.985 105.761 646.764 104.13 646.764 99.8549V77.2363H654.839V66.126H646.764V53.6971H633.884V66.126H617.296V63.0285C617.296 58.7451 618.931 57.1145 623.431 57.1145H626.255V47.2291H620.058C609.432 47.2291 604.424 50.6933 604.424 61.2886V66.1182H597.272V77.2285H604.424V117.067H617.304V77.2285H633.892V102.196C633.892 112.588 637.875 117.074 648.298 117.074H654.941V105.761H652.382Z" fill="black"/>
<path d="M698.572 87.0125C697.656 80.3884 692.234 76.4171 685.903 76.4171C679.565 76.4171 674.354 80.287 673.032 87.0125H698.572ZM672.922 94.9629C673.845 102.5 679.26 106.783 686.107 106.783C691.522 106.783 695.716 104.232 698.165 100.159H711.349C708.282 110.957 698.572 117.886 685.802 117.886C670.371 117.886 659.542 107.088 659.542 91.7016C659.542 76.3157 670.989 65.2053 686.115 65.2053C701.342 65.2053 712.375 76.4171 712.375 91.7016C712.375 92.8251 712.273 93.9408 712.069 94.9629H672.922Z" fill="black"/>
<path d="M794.261 91.6002C794.261 83.3455 788.024 77.0257 780.364 77.0257C772.703 77.0257 766.467 83.1426 766.467 91.6002C766.467 99.9563 772.703 106.175 780.364 106.175C788.024 106.167 794.261 99.8549 794.261 91.6002ZM753.791 66.126H766.358V72.7501C770.137 68.061 775.755 65.2132 782.5 65.2132C796.295 65.2132 807.125 76.5263 807.125 91.4987C807.125 106.479 796.092 117.894 782.195 117.894C775.755 117.894 770.442 115.342 766.764 111.067V138.039H753.791V66.126Z" fill="black"/>
<path d="M852.422 91.6002C852.422 83.0412 846.193 77.0257 838.525 77.0257C830.865 77.0257 824.628 83.1426 824.628 91.6002C824.628 99.9563 830.865 106.175 838.525 106.175C846.193 106.167 852.422 100.159 852.422 91.6002ZM852.531 117.074V110.45C848.752 115.038 843.126 117.886 836.389 117.886C822.391 117.886 811.765 106.674 811.765 91.6002C811.765 76.62 822.797 65.2132 836.694 65.2132C843.236 65.2132 848.752 68.0688 852.531 72.5472V66.126H865.098V117.074H852.531Z" fill="black"/>
<path d="M731.138 71.1194C731.138 71.1194 734.339 65.2132 742.171 65.2132C745.52 65.2132 747.688 66.3601 747.688 66.3601V79.3585C747.688 79.3585 742.962 76.4483 738.619 77.0335C734.276 77.6186 731.53 81.5978 731.545 86.9189V117.082H718.572V66.1338H731.138V71.1194Z" fill="black"/>
<path d="M923.792 66.126L892.062 137.875H878.682L891.139 110.138L870.075 66.126H885.239L897.563 95.5325L910.208 66.126H923.792Z" fill="black"/>
<path d="M1025.08 64.9713L993.62 46.8702C984.386 41.5569 972.845 48.1966 972.845 58.831V60.6879C972.845 62.3654 973.745 63.918 975.2 64.7528L981.139 68.1702C982.884 69.1767 985.059 67.9205 985.059 65.9154V61.2965C985.059 58.987 987.563 57.5436 989.566 58.6983L1016.81 74.3807C1018.82 75.5355 1018.82 78.4223 1016.81 79.5692L989.566 95.2516C987.563 96.4063 985.059 94.9629 985.059 92.6535V90.1958C985.059 79.5614 973.518 72.9139 964.277 78.235L932.821 96.3361C923.588 101.649 923.588 114.944 932.821 120.258L964.277 138.359C973.51 143.672 985.059 137.032 985.059 126.398V124.541C985.059 122.864 984.159 121.319 982.704 120.476L976.765 117.051C975.02 116.044 972.845 117.301 972.845 119.306V123.925C972.845 126.234 970.341 127.678 968.338 126.523L941.092 110.84C939.089 109.686 939.089 106.799 941.092 105.644L968.338 89.9617C970.341 88.807 972.845 90.2504 972.845 92.5598V95.0175C972.845 105.652 984.386 112.299 993.62 106.978L1025.08 88.8772C1034.31 83.5795 1034.31 70.2846 1025.08 64.9713Z" fill="black"/>
<path d="M190.42 109.478C198.673 109.478 204.406 103.934 204.406 97.004C204.406 92.594 201.571 89.318 198.547 87.554C201.319 85.79 203.902 82.64 203.902 78.419C203.902 71.426 197.98 66.638 190.483 66.638H169V109.478H190.42ZM189.475 73.505C193.192 73.505 195.649 75.584 195.649 78.86C195.649 81.884 193.318 84.467 189.79 84.467H177.253V73.505H189.475ZM189.79 90.956C193.696 90.956 196.027 93.791 196.027 96.626C196.027 99.965 193.192 102.548 189.664 102.548H177.253V90.956H189.79Z" fill="black"/>
<path d="M236.063 109.478V77.978H228.125V97.949C228.125 101.099 225.542 103.115 222.266 103.115C219.116 103.115 216.848 101.288 216.848 97.823V77.978H208.847V99.083C208.847 105.824 212.816 109.982 219.62 109.982C224.345 109.982 227.243 107.462 228.314 105.572V109.478H236.063Z" fill="black"/>
<path d="M245.648 121.07C254.783 121.07 255.854 117.29 259.697 107.525L271.415 77.978H263.477L255.35 99.776L246.971 77.978H238.781L250.499 107.336C250.877 108.344 250.94 108.848 250.751 109.793C250.121 113.069 248.042 114.14 245.9 114.14H243.317V121.07H245.648Z" fill="black"/>
<path d="M312.391 109.478V88.436C312.391 81.695 308.422 77.411 301.681 77.411C296.956 77.411 294.058 80.057 292.924 81.947V77.978H285.175V109.478H293.176V89.822C293.176 86.609 295.696 84.53 298.972 84.53C302.122 84.53 304.453 86.42 304.453 89.885V109.478H312.391Z" fill="black"/>
<path d="M349.949 93.728C349.949 84.467 342.767 77.411 333.443 77.411C324.056 77.411 316.937 84.467 316.937 93.728C316.937 102.989 324.056 109.982 333.443 109.982C342.767 109.982 349.949 102.989 349.949 93.728ZM333.443 102.674C328.781 102.674 324.875 98.831 324.875 93.728C324.875 88.625 328.781 84.782 333.443 84.782C338.105 84.782 341.948 88.625 341.948 93.728C341.948 98.831 338.105 102.674 333.443 102.674Z" fill="black"/>
<path d="M388.163 109.478L397.991 77.978H389.927L383.816 98.579H383.753L377.39 77.978H371.783L365.105 98.39H364.979L359.12 77.978H350.867L360.191 109.478H367.436L374.177 89.948H374.366L380.855 109.478H388.163Z" fill="black"/>
<path d="M447.087 109.478L456.915 77.978H448.851L442.74 98.579H442.677L436.314 77.978H430.707L424.029 98.39H423.903L418.044 77.978H409.791L419.115 109.478H426.36L433.101 89.948H433.29L439.779 109.478H447.087Z" fill="black"/>
<path d="M464.515 74.072C466.972 74.072 469.051 71.993 469.051 69.536C469.051 67.142 466.972 65 464.515 65C462.058 65 459.979 67.142 459.979 69.536C459.979 71.993 462.058 74.072 464.515 74.072ZM468.421 109.478V77.978H460.483V109.478H468.421Z" fill="black"/>
<path d="M489.299 109.478V102.485H487.724C485.015 102.485 484.259 101.477 484.259 98.831V84.845H489.236V77.978H484.259V70.292H476.321V77.978H472.226V84.845H476.321V100.28C476.321 106.706 478.778 109.478 485.204 109.478H489.299Z" fill="black"/>
<path d="M520.658 109.478V88.436C520.658 81.695 516.689 77.411 509.948 77.411C505.475 77.411 502.703 79.679 501.443 81.569V66.638H493.442V109.478H501.443V89.822C501.443 86.609 503.963 84.53 507.239 84.53C510.389 84.53 512.72 86.42 512.72 89.885V109.478H520.658Z" fill="black"/>
</svg>
