<svg width="1200" height="180" viewBox="0 0 1200 180" fill="none" xmlns="http://www.w3.org/2000/svg">
<rect width="1200" height="180" rx="30" fill="#B2FCE4"/>
<path d="M930.292 67.1079L896.525 139.252H882.536L895.151 112.3L875.333 67.1079H889.697L902.438 97.3798L916.344 67.1079H930.292Z" fill="black"/>
<path d="M801.803 92.723C801.803 84.4435 795.766 78.0614 788.355 78.0614C780.944 78.0614 774.907 84.2279 774.907 92.723C774.907 101.132 780.944 107.385 788.355 107.385C795.766 107.385 801.803 101.003 801.803 92.723ZM762.624 139.252V67.1084H774.782V73.7492C778.446 69.0489 783.9 66.1597 790.395 66.1597C803.76 66.1597 814.252 77.544 814.252 92.5937C814.252 107.643 803.552 119.114 790.104 119.114C783.858 119.114 778.737 116.57 775.156 112.257V139.209H762.624V139.252Z" fill="black"/>
<path d="M858.135 92.7236C858.135 84.0991 852.098 78.062 844.687 78.062C837.275 78.062 831.238 84.2285 831.238 92.7236C831.238 101.132 837.275 107.385 844.687 107.385C852.098 107.385 858.135 101.305 858.135 92.7236ZM858.218 118.338V111.697C854.554 116.312 849.1 119.158 842.605 119.158C829.032 119.158 818.748 107.903 818.748 92.7236C818.748 77.6739 829.448 66.2034 842.896 66.2034C849.225 66.2034 854.554 69.0926 858.218 73.5773V67.1089H870.376V118.338H858.218Z" fill="black"/>
<path d="M740.682 72.1157C740.682 72.1157 743.763 66.1648 751.383 66.1648C754.63 66.1648 756.712 67.3291 756.712 67.3291V80.3952C756.712 80.3952 752.132 77.4629 747.927 78.0666C743.722 78.6703 741.057 82.6375 741.057 87.9847V118.343H728.483V67.1135H740.641V72.1157H740.682Z" fill="black"/>
<path d="M1024.72 64.2184L1010.32 55.6802L995.703 47.0126C986.043 41.2773 973.969 48.4787 973.969 60.0355V61.976C973.969 63.0541 974.51 64.0459 975.426 64.5634L982.213 68.5738C984.086 69.6949 986.418 68.2719 986.418 66.0295V61.4154C986.418 59.13 988.791 57.7069 990.706 58.8281L1004.03 66.7626L1017.31 74.654C1019.23 75.7752 1019.23 78.6644 1017.31 79.7856L1004.03 87.6769L990.706 95.6115C988.791 96.7326 986.418 95.3096 986.418 93.0241V90.7386C986.418 79.1819 974.344 71.9373 964.684 77.7157L950.07 86.3833L935.664 94.9215C925.963 100.7 925.963 115.232 935.664 121.011L950.07 129.549L964.684 138.216C974.344 143.952 986.418 136.75 986.418 125.193V123.253C986.418 122.175 985.877 121.183 984.961 120.666L978.174 116.655C976.3 115.534 973.969 116.957 973.969 119.199V123.813C973.969 126.099 971.596 127.522 969.68 126.401L956.357 118.466L943.075 110.575C941.16 109.454 941.16 106.565 943.075 105.443L956.357 97.552L969.68 89.6175C971.596 88.4963 973.969 89.9193 973.969 92.2048V94.4903C973.969 106.047 986.043 113.292 995.703 107.513L1010.32 98.8456L1024.72 90.3074C1034.42 84.4859 1034.42 69.9968 1024.72 64.2184Z" fill="black"/>
<path d="M588.712 99.236C586.048 111.008 576.263 119.115 563.606 119.115C548.992 119.115 538 107.731 538 92.6814C538 77.6317 549.158 66.1611 563.814 66.1611C576.18 66.1611 585.839 74.2681 588.629 85.8249H575.764C573.474 81.2108 568.935 78.1491 563.897 78.1491C556.57 78.1491 550.449 84.4019 550.449 92.6814C550.449 100.961 556.57 107.214 563.897 107.214C569.144 107.214 573.682 104.152 575.847 99.236H588.712Z" fill="black"/>
<path d="M594.498 118.295V46.0217H606.947V118.295H594.498Z" fill="black"/>
<path d="M625.687 96.0871C626.562 103.677 631.808 107.946 638.428 107.946C643.674 107.946 647.712 105.402 650.086 101.305H662.826C659.87 112.172 650.46 119.114 638.095 119.114C623.147 119.114 612.697 108.248 612.697 92.8098C612.697 77.372 623.772 66.2034 638.386 66.2034C653.125 66.2034 663.784 77.4583 663.784 92.8098C663.784 93.931 663.701 95.0522 663.492 96.0871H625.687V96.0871ZM650.502 88.0664C649.628 81.4255 644.382 77.4152 638.261 77.4152C632.141 77.4152 627.103 81.2962 625.812 88.0664H650.502Z" fill="black"/>
<path d="M708.249 118.296V111.655C704.586 116.269 699.173 119.115 692.636 119.115C679.104 119.115 668.82 107.86 668.82 92.6814C668.82 77.6317 679.479 66.1611 692.927 66.1611C699.256 66.1611 704.586 69.0072 708.249 73.5351V67.0667H720.407V118.253H708.249V118.296ZM708.125 92.6814C708.125 84.1 702.087 78.0198 694.676 78.0198C687.265 78.0198 681.228 84.1432 681.228 92.6814C681.228 101.09 687.265 107.343 694.676 107.343C702.087 107.343 708.125 101.306 708.125 92.6814Z" fill="black"/>
<path d="M190.42 109.478C198.673 109.478 204.406 103.934 204.406 97.004C204.406 92.594 201.571 89.318 198.547 87.554C201.319 85.79 203.902 82.64 203.902 78.419C203.902 71.426 197.98 66.638 190.483 66.638H169V109.478H190.42ZM189.475 73.505C193.192 73.505 195.649 75.584 195.649 78.86C195.649 81.884 193.318 84.467 189.79 84.467H177.253V73.505H189.475ZM189.79 90.956C193.696 90.956 196.027 93.791 196.027 96.626C196.027 99.965 193.192 102.548 189.664 102.548H177.253V90.956H189.79Z" fill="black"/>
<path d="M236.063 109.478V77.978H228.125V97.949C228.125 101.099 225.542 103.115 222.266 103.115C219.116 103.115 216.848 101.288 216.848 97.823V77.978H208.847V99.083C208.847 105.824 212.816 109.982 219.62 109.982C224.345 109.982 227.243 107.462 228.314 105.572V109.478H236.063Z" fill="black"/>
<path d="M245.648 121.07C254.783 121.07 255.854 117.29 259.697 107.525L271.415 77.978H263.477L255.35 99.776L246.971 77.978H238.781L250.499 107.336C250.877 108.344 250.94 108.848 250.751 109.793C250.121 113.069 248.042 114.14 245.9 114.14H243.317V121.07H245.648Z" fill="black"/>
<path d="M312.391 109.478V88.436C312.391 81.695 308.422 77.411 301.681 77.411C296.956 77.411 294.058 80.057 292.924 81.947V77.978H285.175V109.478H293.176V89.822C293.176 86.609 295.696 84.53 298.972 84.53C302.122 84.53 304.453 86.42 304.453 89.885V109.478H312.391Z" fill="black"/>
<path d="M349.949 93.728C349.949 84.467 342.767 77.411 333.443 77.411C324.056 77.411 316.937 84.467 316.937 93.728C316.937 102.989 324.056 109.982 333.443 109.982C342.767 109.982 349.949 102.989 349.949 93.728ZM333.443 102.674C328.781 102.674 324.875 98.831 324.875 93.728C324.875 88.625 328.781 84.782 333.443 84.782C338.105 84.782 341.948 88.625 341.948 93.728C341.948 98.831 338.105 102.674 333.443 102.674Z" fill="black"/>
<path d="M388.163 109.478L397.991 77.978H389.927L383.816 98.579H383.753L377.39 77.978H371.783L365.105 98.39H364.979L359.12 77.978H350.867L360.191 109.478H367.436L374.177 89.948H374.366L380.855 109.478H388.163Z" fill="black"/>
<path d="M447.087 109.478L456.915 77.978H448.851L442.74 98.579H442.677L436.314 77.978H430.707L424.029 98.39H423.903L418.044 77.978H409.791L419.115 109.478H426.36L433.101 89.948H433.29L439.779 109.478H447.087Z" fill="black"/>
<path d="M464.515 74.072C466.972 74.072 469.051 71.993 469.051 69.536C469.051 67.142 466.972 65 464.515 65C462.058 65 459.979 67.142 459.979 69.536C459.979 71.993 462.058 74.072 464.515 74.072ZM468.421 109.478V77.978H460.483V109.478H468.421Z" fill="black"/>
<path d="M489.299 109.478V102.485H487.724C485.015 102.485 484.259 101.477 484.259 98.831V84.845H489.236V77.978H484.259V70.292H476.321V77.978H472.226V84.845H476.321V100.28C476.321 106.706 478.778 109.478 485.204 109.478H489.299Z" fill="black"/>
<path d="M520.658 109.478V88.436C520.658 81.695 516.689 77.411 509.948 77.411C505.475 77.411 502.703 79.679 501.443 81.569V66.638H493.442V109.478H501.443V89.822C501.443 86.609 503.963 84.53 507.239 84.53C510.389 84.53 512.72 86.42 512.72 89.885V109.478H520.658Z" fill="black"/>
</svg>
