<svg width="1200" height="180" viewBox="0 0 1200 180" fill="none" xmlns="http://www.w3.org/2000/svg">
<rect width="1200" height="180" rx="30" fill="#B2FCE4"/>
<path d="M179.351 95.455C176.894 99.424 172.673 101.944 167.696 101.944C160.01 101.944 153.899 95.833 153.899 87.58C153.899 79.39 160.01 73.216 167.696 73.216C172.61 73.216 176.768 75.673 179.162 79.579H188.612C185.399 71.2 177.272 65.656 167.759 65.656C155.348 65.656 145.268 75.043 145.268 87.706C145.268 100.243 155.033 109.504 167.633 109.504C177.461 109.504 185.651 103.897 188.738 95.455H179.351Z" fill="black"/>
<path d="M219.81 109V87.958C219.81 81.217 215.841 76.933 209.1 76.933C204.627 76.933 201.855 79.201 200.595 81.091V66.16H192.594V109H200.595V89.344C200.595 86.131 203.115 84.052 206.391 84.052C209.541 84.052 211.872 85.942 211.872 89.407V109H219.81Z" fill="black"/>
<path d="M256.738 95.329C256.864 94.699 256.927 94.006 256.927 93.313C256.927 83.863 250.123 76.933 240.736 76.933C231.412 76.933 224.356 83.8 224.356 93.313C224.356 102.826 231.034 109.504 240.547 109.504C248.422 109.504 254.407 105.22 256.297 98.542H248.17C246.658 101.062 244.075 102.637 240.736 102.637C236.515 102.637 233.176 99.991 232.609 95.329H256.738ZM232.672 90.415C233.491 86.257 236.704 83.863 240.61 83.863C244.516 83.863 247.855 86.32 248.422 90.415H232.672Z" fill="black"/>
<path d="M283.915 97.282C282.529 100.306 279.631 102.196 276.292 102.196C271.63 102.196 267.724 98.353 267.724 93.25C267.724 88.147 271.63 84.304 276.292 84.304C279.505 84.304 282.403 86.194 283.852 89.029H292.042C290.278 81.91 284.104 76.933 276.229 76.933C266.905 76.933 259.786 83.989 259.786 93.25C259.786 102.511 266.779 109.504 276.103 109.504C284.167 109.504 290.404 104.527 292.105 97.282H283.915Z" fill="black"/>
<path d="M326.166 109L313.188 89.47L325.158 77.5H316.149L304.242 89.785H303.99V66.16H296.178V109H303.99V98.164L307.77 94.636L316.842 109H326.166Z" fill="black"/>
<path d="M357.937 93.25C357.937 83.989 350.755 76.933 341.431 76.933C332.044 76.933 324.925 83.989 324.925 93.25C324.925 102.511 332.044 109.504 341.431 109.504C350.755 109.504 357.937 102.511 357.937 93.25ZM341.431 102.196C336.769 102.196 332.863 98.353 332.863 93.25C332.863 88.147 336.769 84.304 341.431 84.304C346.093 84.304 349.936 88.147 349.936 93.25C349.936 98.353 346.093 102.196 341.431 102.196Z" fill="black"/>
<path d="M389.64 109V77.5H381.702V97.471C381.702 100.621 379.119 102.637 375.843 102.637C372.693 102.637 370.425 100.81 370.425 97.345V77.5H362.424V98.605C362.424 105.346 366.393 109.504 373.197 109.504C377.922 109.504 380.82 106.984 381.891 105.094V109H389.64Z" fill="black"/>
<path d="M410.376 109V102.007H408.801C406.092 102.007 405.336 100.999 405.336 98.353V84.367H410.313V77.5H405.336V69.814H397.398V77.5H393.303V84.367H397.398V99.802C397.398 106.228 399.855 109 406.281 109H410.376Z" fill="black"/>
<path d="M460.174 109L470.003 77.5H461.939L455.827 98.101H455.764L449.401 77.5H443.794L437.116 97.912H436.99L431.132 77.5H422.878L432.202 109H439.447L446.189 89.47H446.378L452.866 109H460.174Z" fill="black"/>
<path d="M477.602 73.594C480.059 73.594 482.138 71.515 482.138 69.058C482.138 66.664 480.059 64.522 477.602 64.522C475.145 64.522 473.066 66.664 473.066 69.058C473.066 71.515 475.145 73.594 477.602 73.594ZM481.508 109V77.5H473.57V109H481.508Z" fill="black"/>
<path d="M502.386 109V102.007H500.811C498.102 102.007 497.346 100.999 497.346 98.353V84.367H502.323V77.5H497.346V69.814H489.408V77.5H485.313V84.367H489.408V99.802C489.408 106.228 491.865 109 498.291 109H502.386Z" fill="black"/>
<path d="M533.745 109V87.958C533.745 81.217 529.776 76.933 523.035 76.933C518.562 76.933 515.79 79.201 514.53 81.091V66.16H506.529V109H514.53V89.344C514.53 86.131 517.05 84.052 520.326 84.052C523.476 84.052 525.807 85.942 525.807 89.407V109H533.745Z" fill="black"/>
<path d="M943.292 67.1079L909.525 139.252H895.536L908.151 112.3L888.333 67.1079H902.697L915.438 97.3798L929.344 67.1079H943.292Z" fill="black"/>
<path d="M814.803 92.723C814.803 84.4435 808.766 78.0614 801.355 78.0614C793.944 78.0614 787.907 84.2279 787.907 92.723C787.907 101.132 793.944 107.385 801.355 107.385C808.766 107.385 814.803 101.003 814.803 92.723ZM775.624 139.252V67.1084H787.782V73.7492C791.446 69.0489 796.9 66.1597 803.395 66.1597C816.76 66.1597 827.252 77.544 827.252 92.5937C827.252 107.643 816.552 119.114 803.104 119.114C796.858 119.114 791.737 116.57 788.156 112.257V139.209H775.624V139.252Z" fill="black"/>
<path d="M871.135 92.7236C871.135 84.0991 865.098 78.062 857.687 78.062C850.275 78.062 844.238 84.2285 844.238 92.7236C844.238 101.132 850.275 107.385 857.687 107.385C865.098 107.385 871.135 101.305 871.135 92.7236ZM871.218 118.338V111.697C867.554 116.312 862.1 119.158 855.605 119.158C842.032 119.158 831.748 107.903 831.748 92.7236C831.748 77.6739 842.448 66.2034 855.896 66.2034C862.225 66.2034 867.554 69.0926 871.218 73.5773V67.1089H883.376V118.338H871.218Z" fill="black"/>
<path d="M753.682 72.1157C753.682 72.1157 756.763 66.1648 764.383 66.1648C767.63 66.1648 769.712 67.3291 769.712 67.3291V80.3952C769.712 80.3952 765.132 77.4629 760.927 78.0666C756.722 78.6703 754.057 82.6375 754.057 87.9847V118.343H741.483V67.1135H753.641V72.1157H753.682Z" fill="black"/>
<path d="M1037.72 64.2184L1023.32 55.6802L1008.7 47.0126C999.043 41.2773 986.969 48.4787 986.969 60.0355V61.976C986.969 63.0541 987.51 64.0459 988.426 64.5634L995.213 68.5738C997.086 69.6949 999.418 68.2719 999.418 66.0295V61.4154C999.418 59.13 1001.79 57.7069 1003.71 58.8281L1017.03 66.7626L1030.31 74.654C1032.23 75.7752 1032.23 78.6644 1030.31 79.7856L1017.03 87.6769L1003.71 95.6115C1001.79 96.7326 999.418 95.3096 999.418 93.0241V90.7386C999.418 79.1819 987.344 71.9373 977.684 77.7157L963.07 86.3833L948.664 94.9215C938.963 100.7 938.963 115.232 948.664 121.011L963.07 129.549L977.684 138.216C987.344 143.952 999.418 136.75 999.418 125.193V123.253C999.418 122.175 998.877 121.183 997.961 120.666L991.174 116.655C989.3 115.534 986.969 116.957 986.969 119.199V123.813C986.969 126.099 984.596 127.522 982.68 126.401L969.357 118.466L956.075 110.575C954.16 109.454 954.16 106.565 956.075 105.443L969.357 97.552L982.68 89.6175C984.596 88.4963 986.969 89.9193 986.969 92.2048V94.4903C986.969 106.047 999.043 113.292 1008.7 107.513L1023.32 98.8456L1037.72 90.3074C1047.42 84.4859 1047.42 69.9968 1037.72 64.2184Z" fill="black"/>
<path d="M601.712 99.236C599.048 111.008 589.263 119.115 576.606 119.115C561.992 119.115 551 107.731 551 92.6814C551 77.6317 562.158 66.1611 576.814 66.1611C589.18 66.1611 598.839 74.2681 601.629 85.8249H588.764C586.474 81.2108 581.935 78.1491 576.897 78.1491C569.57 78.1491 563.449 84.4019 563.449 92.6814C563.449 100.961 569.57 107.214 576.897 107.214C582.144 107.214 586.682 104.152 588.847 99.236H601.712Z" fill="black"/>
<path d="M607.498 118.295V46.0217H619.947V118.295H607.498Z" fill="black"/>
<path d="M638.687 96.0871C639.562 103.677 644.808 107.946 651.428 107.946C656.674 107.946 660.712 105.402 663.086 101.305H675.826C672.87 112.172 663.46 119.114 651.095 119.114C636.147 119.114 625.697 108.248 625.697 92.8098C625.697 77.372 636.772 66.2034 651.386 66.2034C666.125 66.2034 676.784 77.4583 676.784 92.8098C676.784 93.931 676.701 95.0522 676.492 96.0871H638.687V96.0871ZM663.502 88.0664C662.628 81.4255 657.382 77.4152 651.261 77.4152C645.141 77.4152 640.103 81.2962 638.812 88.0664H663.502Z" fill="black"/>
<path d="M721.249 118.296V111.655C717.586 116.269 712.173 119.115 705.636 119.115C692.104 119.115 681.82 107.86 681.82 92.6814C681.82 77.6317 692.479 66.1611 705.927 66.1611C712.256 66.1611 717.586 69.0072 721.249 73.5351V67.0667H733.407V118.253H721.249V118.296ZM721.125 92.6814C721.125 84.1 715.087 78.0198 707.676 78.0198C700.265 78.0198 694.228 84.1432 694.228 92.6814C694.228 101.09 700.265 107.343 707.676 107.343C715.087 107.343 721.125 101.306 721.125 92.6814Z" fill="black"/>
</svg>
